# xmcd
#
# Track frame offsets: 
#        150
#        15910
#        33930
#        52077
#        71972
#        89280
#        102812
#        119060
#        138157
#        154547
#        159242
#        176170
#        183357
#        202815
#        218297
#        240012
#        249710
#        269132
#
# Disc length: 3807 seconds
#
# Revision: 58
# Processed by: cddbd v1.4PL0 Copyright (c) Steve Scherf et al.
# Submitted via: ExactAudioCopy v0.90b4
#
DISCID=ec0edd12
DTITLE=Moby - Play
DYEAR=1999
DGENRE=Electronic
TTITLE0=Honey
TTITLE1=Find my baby
TTITLE2=Porcelain
TTITLE3=Why does my heart feels so bad?
TTITLE4=South side
TTITLE5=Rushing
TTITLE6=Bodyrock
TTITLE7=Natural blues
TTITLE8=Machete
TTITLE9=7
TTITLE10=Run on
TTITLE11=Down slow
TTITLE12=If things were perfect
TTITLE13=Everloving
TTITLE14=Inside
TTITLE15=Guitar flute and string
TTITLE16=The sky is broken
TTITLE17=My weakness
EXTD=
EXTT0=
EXTT1=
EXTT2=
EXTT3=
EXTT4=
EXTT5=
EXTT6=
EXTT7=
EXTT8=
EXTT9=
EXTT10=
EXTT11=
EXTT12=
EXTT13=
EXTT14=
EXTT15=
EXTT16=
EXTT17=
PLAYORDER=
